<?xml version="1.0" standalone="no"?>
<!DOCTYPE svg PUBLIC "-//W3C//DTD SVG 20010904//EN"
 "http://www.w3.org/TR/2001/REC-SVG-20010904/DTD/svg10.dtd">
<svg version="1.0" xmlns="http://www.w3.org/2000/svg"
 width="944.000000pt" height="944.000000pt" viewBox="0 0 944.000000 944.000000"
 preserveAspectRatio="xMidYMid meet">

<g transform="translate(0.000000,944.000000) scale(0.100000,-0.100000)"
fill="#000000" stroke="none">
<path d="M5375 9119 c-82 -6 -139 -20 -315 -75 -360 -112 -372 -115 -466 -121
-115 -7 -181 11 -378 105 -210 99 -261 96 -393 -23 -157 -141 -290 -397 -343
-655 -21 -105 -27 -324 -10 -410 10 -53 56 -100 184 -184 199 -132 405 -217
661 -272 170 -37 462 -44 648 -16 70 10 124 15 120 11 -4 -4 -48 -17 -98 -29
-361 -87 -708 -87 -980 2 -145 47 -356 157 -479 251 -152 115 -153 116 -297
127 -324 25 -771 -4 -933 -60 -41 -14 -47 -19 -31 -25 57 -19 125 -57 166 -93
93 -82 196 -259 252 -432 42 -128 131 -355 186 -473 70 -150 158 -286 269
-415 l55 -63 -27 -87 c-26 -86 -31 -134 -17 -182 6 -19 9 -11 14 37 9 86 25
143 46 172 l18 24 31 -22 30 -21 -23 -58 c-40 -99 -57 -217 -46 -311 6 -45 17
-94 25 -109 15 -26 15 -25 16 43 0 39 7 97 15 128 15 58 43 122 50 115 2 -2
-3 -49 -12 -103 -16 -104 -19 -321 -4 -339 5 -6 14 -37 21 -69 6 -32 25 -88
42 -125 32 -71 87 -157 95 -149 2 3 -3 27 -12 54 -37 105 -13 347 46 452 11
20 17 27 13 16 -4 -11 -18 -67 -31 -125 -27 -122 -24 -231 9 -338 26 -84 112
-243 155 -284 l34 -33 -45 81 c-66 118 -81 182 -80 339 1 104 7 149 27 227 27
101 86 238 138 320 27 42 35 48 65 48 19 0 34 -4 34 -8 0 -4 -14 -30 -32 -58
-51 -81 -106 -204 -130 -294 -18 -68 -23 -111 -23 -215 0 -162 14 -213 95
-333 85 -127 220 -245 345 -300 28 -12 42 -16 31 -9 -118 78 -238 205 -285
302 -83 170 -87 369 -12 535 l21 45 0 -127 c0 -109 4 -139 26 -210 52 -165
125 -278 271 -423 46 -46 122 -109 169 -142 119 -81 203 -152 242 -202 27 -36
32 -51 32 -96 0 -30 -4 -57 -10 -60 -5 -3 -10 -11 -10 -17 0 -24 60 47 80 95
16 36 21 64 18 96 -6 60 -50 150 -101 209 -92 106 -203 299 -260 452 -57 153
-71 235 -71 405 0 132 3 162 27 254 37 139 60 191 86 191 32 0 288 133 407
211 178 117 368 273 554 454 294 287 396 375 433 375 17 0 90 -120 136 -223
36 -80 85 -237 100 -322 29 -166 21 -409 -19 -557 -10 -38 -17 -68 -15 -68 8
0 51 92 99 208 140 343 205 731 178 1057 -6 66 -8 123 -4 127 14 14 369 79
485 89 138 12 284 -1 355 -32 72 -31 45 -3 -137 139 -145 113 -308 228 -416
294 -112 68 -288 161 -336 177 l-37 12 0 152 c0 242 -24 389 -92 565 -57 149
-148 261 -270 332 -53 31 -92 44 -172 60 -56 11 -103 19 -103 19 0 -1 -45 -5
-100 -10z m765 -1944 c0 -63 -2 -115 -4 -115 -9 0 -58 200 -53 214 4 9 18 16
32 16 l25 0 0 -115z m-252 -42 c25 -61 69 -206 77 -258 5 -34 1 -28 -31 40
-20 44 -59 115 -87 158 -27 43 -48 80 -45 82 4 5 50 23 59 24 4 1 16 -20 27
-46z"/>
<path d="M5569 6755 c-19 -7 -100 -45 -178 -84 -79 -39 -161 -74 -182 -77 -49
-8 -59 -26 -58 -101 1 -98 5 -99 79 -36 85 74 256 187 350 232 97 46 179 53
258 22 73 -29 54 -5 -24 30 -52 24 -77 29 -136 28 -40 0 -89 -6 -109 -14z"/>
<path d="M5732 6449 c-60 -66 -151 -121 -227 -137 -27 -6 -94 -13 -148 -16
-143 -9 -153 -22 -23 -31 131 -9 193 -3 266 24 97 37 116 53 155 137 19 42 34
78 33 80 -2 1 -27 -24 -56 -57z"/>
<path d="M5706 6311 c-10 -11 -41 -30 -69 -43 -45 -20 -68 -23 -169 -23 -131
0 -141 -12 -33 -40 138 -36 300 -26 443 27 l57 21 -64 13 c-36 8 -77 24 -96
39 -40 30 -47 31 -69 6z"/>
<path d="M4742 5623 c2 -10 29 -31 66 -49 53 -27 62 -29 62 -14 0 28 -45 60
-103 74 -24 6 -28 4 -25 -11z"/>
<path d="M5073 5629 c-31 -9 -83 -60 -83 -81 0 -6 19 7 43 28 24 22 52 44 63
51 22 14 20 14 -23 2z"/>
<path d="M4750 5383 c-14 -9 -52 -41 -85 -72 -33 -30 -74 -63 -92 -73 l-31
-19 93 -88 c56 -54 108 -94 131 -102 26 -9 85 -14 174 -14 127 0 138 2 185 27
64 34 204 177 184 188 -15 9 -60 44 -143 109 -67 54 -118 67 -176 47 -56 -20
-68 -20 -104 -1 -38 20 -106 19 -136 -2z m189 -137 c37 0 66 5 68 11 4 12 76
8 102 -6 13 -8 11 -11 -14 -21 -95 -36 -236 -38 -294 -4 -17 10 -31 22 -31 26
0 11 63 14 85 4 11 -5 49 -10 84 -10z"/>
<path d="M2484 5024 l-41 -15 -7 -1557 c-3 -856 -7 -1890 -7 -2296 l-2 -740
23 -18 c21 -17 76 -18 1206 -18 l1184 0 0 93 c0 50 -3 143 -7 205 l-6 112
-972 0 -973 0 -16 40 c-14 37 -16 213 -16 1884 0 1265 3 1852 11 1873 13 38
41 43 265 43 140 0 171 -3 218 -20 67 -26 124 -70 187 -146 109 -131 1089
-1120 1175 -1186 l61 -47 89 78 c130 114 555 548 735 751 281 316 462 484 584
542 59 27 63 28 235 28 162 0 179 -2 220 -22 l45 -23 3 -1022 2 -1023 48 0
c73 0 157 -25 265 -79 l97 -48 -2 1292 c-3 1255 -4 1294 -22 1314 -19 21 -23
21 -545 21 l-525 0 -576 -574 c-537 -536 -640 -636 -653 -636 -16 0 -147 125
-632 609 -297 296 -560 553 -584 570 l-44 31 -491 -1 c-402 0 -498 -3 -532
-15z"/>
<path d="M1760 4849 l-335 -180 -35 16 c-19 9 -167 86 -328 171 -161 85 -295
154 -297 154 -3 0 -5 -74 -5 -165 l0 -165 260 -130 c253 -126 260 -131 260
-160 l0 -30 -257 -2 -258 -3 -3 -137 -3 -138 671 0 670 0 0 140 0 140 -256 0
-255 0 3 32 c3 32 9 36 256 161 l252 128 0 175 c0 96 -1 174 -2 174 -2 0 -154
-82 -338 -181z"/>
<path d="M7340 4590 l0 -440 180 0 180 0 0 145 0 145 490 0 490 0 0 155 0 155
-490 0 -490 0 0 140 0 140 -180 0 -180 0 0 -440z"/>
<path d="M7340 3921 l0 -151 485 0 485 0 0 -165 0 -165 -485 0 -485 0 0 -150
0 -150 523 0 c287 1 553 5 590 9 89 12 154 46 192 100 l30 43 0 311 c0 347 -1
350 -68 401 -80 61 -69 60 -694 64 l-573 3 0 -150z"/>
<path d="M760 3679 c0 -196 4 -316 12 -347 17 -70 78 -125 170 -154 71 -22 83
-23 488 -23 363 0 423 2 478 17 98 28 156 74 180 147 8 23 12 136 12 347 l0
314 -180 0 -180 0 0 -270 0 -270 -310 0 -310 0 0 270 0 270 -180 0 -180 0 0
-301z"/>
<path d="M4700 3091 c-90 -28 -155 -98 -175 -188 -3 -18 -1 -58 5 -89 10 -47
21 -65 63 -109 35 -35 65 -57 92 -64 200 -55 368 139 281 325 -46 99 -166 155
-266 125z"/>
<path d="M760 2675 l0 -375 670 0 670 0 0 375 0 375 -180 0 -180 0 0 -235 0
-235 -80 0 -80 0 0 235 0 235 -150 0 -150 0 0 -235 0 -235 -80 0 -80 0 0 235
0 235 -180 0 -180 0 0 -375z"/>
<path d="M7610 3029 c-142 -13 -213 -48 -249 -122 -20 -41 -21 -60 -21 -328 0
-276 1 -285 23 -324 27 -48 73 -80 146 -103 49 -15 108 -17 496 -17 485 0 507
2 591 64 76 54 79 68 79 386 l0 280 -28 47 c-41 70 -118 105 -257 118 -124 11
-658 11 -780 -1z m700 -444 l0 -155 -305 0 -305 0 0 155 0 155 305 0 305 0 0
-155z"/>
<path d="M4665 2431 c-183 -84 -188 -334 -9 -425 149 -74 333 41 334 209 0 57
-33 137 -71 172 -65 60 -178 79 -254 44z"/>
<path d="M5575 2418 c-115 -21 -296 -134 -378 -236 -41 -51 -84 -146 -97 -212
-7 -38 -8 -299 -4 -822 l7 -768 177 0 178 0 6 233 c3 127 9 470 12 762 l6 529
26 34 c42 55 99 82 174 82 51 0 72 -5 99 -23 49 -33 96 -100 107 -154 7 -31 8
-296 5 -755 l-6 -708 196 0 197 0 0 748 0 749 29 39 c61 84 99 104 194 104 86
0 124 -22 159 -91 15 -30 32 -81 37 -114 5 -34 6 -363 3 -747 l-5 -688 185 0
186 0 6 312 c4 172 8 520 9 773 l2 460 -26 82 c-14 45 -41 107 -60 138 -110
184 -394 315 -595 275 -32 -6 -115 -39 -183 -72 -108 -53 -128 -60 -150 -50
-14 5 -71 31 -126 56 -161 73 -245 88 -370 64z"/>
<path d="M760 2040 l0 -140 250 0 250 0 0 -160 0 -160 -250 0 -250 0 0 -140 0
-140 670 0 670 0 0 140 0 140 -265 0 -265 0 0 160 0 160 265 0 265 0 0 140 0
140 -670 0 -670 0 0 -140z"/>
<path d="M7952 1710 l-133 -140 94 0 95 0 226 135 c124 75 226 138 226 140 0
2 -84 4 -188 5 l-187 1 -133 -141z"/>
<path d="M7920 1449 c-218 -5 -252 -8 -305 -27 -115 -42 -196 -123 -232 -232
-15 -47 -18 -89 -18 -280 0 -193 3 -233 18 -278 40 -114 136 -192 283 -229 97
-24 632 -25 740 0 172 38 252 120 270 275 l7 62 -177 0 -176 0 -14 -34 c-28
-66 -46 -71 -271 -71 -182 0 -203 2 -234 20 -50 29 -70 63 -73 120 l-3 50 473
3 472 2 0 143 c0 160 -15 237 -57 301 -50 76 -126 129 -223 156 -70 20 -214
25 -480 19z m337 -272 c34 -18 63 -62 63 -97 0 -20 -4 -20 -294 -20 l-294 0 8
35 c20 90 65 105 310 102 144 -2 181 -6 207 -20z"/>
<path d="M760 899 c0 -196 4 -316 12 -347 17 -70 78 -125 170 -154 71 -22 83
-23 488 -23 459 0 502 5 585 64 78 57 80 63 83 434 l3 327 -181 0 -180 0 0
-270 0 -270 -310 0 -310 0 0 270 0 270 -180 0 -180 0 0 -301z"/>
</g>
</svg>
